<svg width="233" height="352" viewBox="0 0 233 352" fill="none" xmlns="http://www.w3.org/2000/svg">
<path d="M228.209 196.623C216.036 185.121 200.12 151.163 184.671 119.944C179.99 110.633 182.331 98.5834 190.289 93.1074C191.693 92.0116 193.566 91.465 194.97 90.3691C209.95 83.7966 221.655 67.3645 221.655 46.5539C221.655 20.8105 203.865 0 181.864 0C165.011 0 150.498 12.0491 144.881 29.0281C140.667 41.0772 129.901 48.7452 118.666 48.1992H113.048C101.813 48.1992 91.5145 41.0802 87.3008 29.0281C81.6831 12.5958 67.1708 0 50.3176 0C27.8468 0 9.59045 23.0047 10.5269 48.7459C11.4636 69.0097 23.1658 84.896 38.6152 90.9188C48.4465 94.753 52.6603 108.993 47.5101 119.4C32.0612 150.62 15.6778 184.578 3.97291 196.08C1.16292 198.818 -1.64475 202.653 1.16291 207.033C3.03627 210.321 6.78058 211.414 9.59045 209.225C10.5271 208.129 9.59045 209.225 22.2293 193.342L17.5459 211.414C16.6093 215.249 18.4826 219.083 21.7598 220.179C25.037 221.275 28.3144 219.083 29.2509 215.249C29.718 214.153 29.718 213.606 29.718 197.723C35.8028 208.676 37.6764 212.51 37.6764 213.059C39.0802 216.347 42.8268 217.99 46.1039 215.798C49.3811 214.155 50.3177 209.772 48.4444 206.487C48.4444 205.391 47.0406 204.295 39.5495 193.888C26.9082 175.813 45.6343 147.878 57.8065 131.995C58.2737 148.974 58.2737 168.145 55.4661 190.6C53.5927 208.126 56.4027 221.821 62.0207 232.227C66.2345 239.896 69.042 249.206 70.4482 258.517C73.2582 276.043 77.4695 299.595 84.4933 332.456C84.4933 335.195 76.5349 336.837 74.1947 337.386C69.0442 337.933 63.4263 341.767 63.4263 347.793C63.4263 353.27 69.5111 350.531 76.5349 350.531C84.026 350.531 96.6648 353.27 96.6648 347.793V300.144C96.6648 272.211 134.115 271.662 134.584 300.144V347.793C134.584 353.27 147.223 350.531 154.714 350.531C162.205 350.531 167.823 353.27 167.823 347.793C167.823 342.317 161.738 338.482 157.055 337.386C154.714 336.84 146.756 335.195 146.756 332.456C153.311 303.428 157.055 280.972 159.865 264.54C161.268 255.776 163.609 247.014 168.292 239.346C179.527 219.629 171.102 184.575 174.847 133.091C187.019 148.974 204.339 175.813 191.699 193.885C184.208 204.292 183.272 205.388 182.805 206.484C180.931 209.771 182.337 214.153 185.615 215.795C188.424 217.987 192.169 216.341 193.573 213.057C194.04 212.51 195.913 208.676 201.531 197.72C201.998 213.603 201.998 214.152 201.998 215.246C202.935 219.08 206.212 221.272 209.489 220.176C212.767 219.08 214.64 215.246 213.703 211.411L209.959 193.886C222.598 210.318 221.661 209.222 222.598 209.769C225.408 211.961 229.152 211.412 231.025 207.577C233.826 203.746 231.016 199.365 228.209 196.623ZM49.8455 84.3481C32.5256 84.3481 18.0132 67.9158 18.0132 47.1053C18.0132 26.2919 32.0583 9.8624 49.8455 9.8624C67.1654 9.8624 81.6778 26.2947 81.6778 47.1053C81.6778 67.9158 67.6352 84.3481 49.8455 84.3481ZM115.852 244.825C93.8481 244.825 76.0609 226.204 76.0609 203.748C76.0609 184.577 91.5097 184.577 98.9984 184.577C102.276 184.577 105.553 184.577 108.83 185.124C124.746 186.22 132.237 184.577 138.322 184.577C148.62 184.577 155.642 187.865 155.642 203.748C155.642 226.751 137.853 244.825 115.852 244.825ZM115.852 174.72C91.5079 174.72 72.3144 151.715 72.3144 123.783C72.3144 95.3016 91.977 72.8458 115.852 72.8458C140.195 72.8458 159.389 95.8505 159.389 123.783C159.386 151.715 140.193 174.72 115.852 174.72ZM150.025 47.1046C150.025 26.8408 164.07 9.86169 181.857 9.86169C199.647 9.86169 213.689 26.294 213.689 47.1046C213.689 67.918 199.644 84.3474 181.857 84.3474C164.07 84.3474 150.025 67.3684 150.025 47.1046Z" fill="#1ED500"/>
<path d="M145.816 191.149V200.46C145.816 204.294 143.006 207.579 139.731 207.579C131.304 207.579 134.581 193.887 133.646 190.6H129.432C128.965 194.434 131.773 207.579 123.348 207.579C114.92 207.579 117.73 194.434 117.263 190.6H113.049V200.46C113.049 209.771 101.347 209.771 101.347 200.46V190.053H97.1329V200.46C97.1329 204.294 94.3229 207.579 91.0481 207.579C87.7709 207.579 84.9633 204.291 84.9633 200.46V192.245C81.219 194.437 79.8128 197.722 79.8128 203.199C79.8128 210.318 82.1533 217.44 85.4305 222.916C86.3671 220.724 88.2405 219.081 90.581 219.081C93.8581 219.081 96.6657 222.369 96.6657 226.2V233.869C98.0696 234.416 99.4757 235.512 100.88 236.061C101.347 232.227 98.5391 219.082 106.964 219.082C115.859 219.082 112.115 233.323 113.049 238.799H117.263V226.2C117.263 216.889 128.965 216.889 128.965 226.2V236.06C130.369 235.514 131.775 234.418 133.179 233.868C133.646 231.677 130.839 219.081 139.264 219.081C141.604 219.081 143.478 220.724 144.414 222.916C148.159 217.439 150.032 210.317 150.032 203.198C150.966 196.079 149.093 192.794 145.816 191.149Z" fill="#1dD500"/>
<path d="M115.858 102.967C112.581 102.967 109.303 104.063 106.963 105.706C109.773 107.348 111.644 110.636 111.644 114.47C111.644 119.947 107.9 123.781 103.685 123.781C101.812 123.781 99.9411 123.235 98.535 121.589V123.232C98.535 134.734 106.493 144.045 116.325 144.045C126.156 144.045 134.114 134.734 134.114 123.232C133.645 112.278 125.687 102.968 115.857 102.968L115.858 102.967Z" fill="#1ED500"/>
<path d="M181.864 31.7693C174.842 31.7693 168.755 38.3418 168.755 47.106C168.755 55.3207 174.373 62.4427 181.864 62.4427C188.885 62.4427 194.972 55.8702 194.972 47.106C194.505 38.8884 188.888 31.7693 181.864 31.7693Z" fill="#1ED500"/>
<path d="M49.8516 31.7693C42.8303 31.7693 36.743 38.3418 36.743 47.106C36.743 55.3207 42.3607 62.4427 49.8516 62.4427C56.873 62.4427 62.9603 55.8702 62.9603 47.106C62.9579 38.8884 56.8731 31.7693 49.8516 31.7693Z" fill="#1ED500"/>
</svg>
